<?xml version="1.0" standalone="no"?>
<!DOCTYPE svg PUBLIC "-//W3C//DTD SVG 20010904//EN"
 "http://www.w3.org/TR/2001/REC-SVG-20010904/DTD/svg10.dtd">
<svg version="1.0" xmlns="http://www.w3.org/2000/svg"
 width="1024.000000pt" height="1024.000000pt" viewBox="0 0 1024.000000 1024.000000"
 preserveAspectRatio="xMidYMid meet">

<g transform="translate(0.000000,1024.000000) scale(0.100000,-0.100000)"
fill="#ffffff" stroke="#ffffff">
<path d="M2031 8423 c7 -20 552 -650 764 -883 133 -146 315 -358 435 -505 99
-123 234 -279 346 -400 134 -144 246 -277 482 -574 107 -135 220 -272 251
-305 82 -89 116 -135 105 -146 -14 -14 -203 -60 -247 -60 -22 0 -249 -33 -506
-74 -256 -41 -549 -86 -651 -101 -102 -14 -210 -30 -240 -35 -30 -6 -151 -21
-269 -35 -117 -13 -216 -26 -218 -28 -8 -8 192 -35 1023 -137 549 -67 1107
-140 1113 -145 20 -20 -107 -194 -369 -505 -94 -113 -260 -313 -368 -445 -108
-131 -256 -302 -327 -380 -72 -77 -188 -210 -260 -295 -71 -85 -224 -267 -340
-405 -116 -137 -249 -297 -295 -355 -46 -58 -162 -199 -258 -313 -95 -115
-172 -210 -170 -212 2 -2 65 51 139 118 305 274 409 367 509 452 100 85 243
215 625 565 336 308 454 418 705 655 307 290 317 299 500 456 195 168 286 239
304 239 31 0 57 -157 161 -975 25 -192 58 -447 74 -565 16 -118 37 -285 46
-370 9 -85 20 -168 24 -185 l8 -30 6 40 c4 22 11 94 17 160 6 66 20 174 30
240 11 66 36 244 55 395 94 724 164 1200 186 1256 4 13 15 24 23 24 33 0 267
-191 491 -401 146 -137 672 -610 810 -729 60 -52 157 -140 215 -195 163 -155
345 -321 595 -546 127 -113 324 -295 438 -404 114 -108 211 -194 214 -191 4 3
-7 21 -24 39 -16 17 -155 185 -308 372 -604 738 -994 1204 -1335 1596 -80 91
-226 264 -325 384 -99 120 -235 279 -302 354 -76 85 -117 138 -110 142 18 10
234 45 522 84 712 98 1227 164 1493 192 94 9 172 20 172 23 0 8 -409 67 -927
135 -639 83 -1225 169 -1246 182 -4 2 16 30 45 62 29 31 157 181 284 331 128
151 284 336 349 410 64 74 194 227 288 340 94 113 221 264 282 335 61 72 185
223 276 336 91 113 255 308 365 433 269 308 487 566 477 566 -10 0 -189 -161
-461 -413 -112 -103 -310 -279 -440 -391 -130 -112 -280 -243 -332 -293 -133
-124 -307 -282 -431 -388 -57 -49 -185 -162 -284 -250 -99 -88 -225 -198 -280
-245 -55 -46 -141 -123 -192 -171 -132 -126 -333 -273 -349 -257 -11 12 -47
233 -85 522 -22 171 -46 352 -54 401 -16 97 -90 675 -126 978 -13 103 -26 187
-29 187 -4 0 -10 -53 -13 -117 -8 -146 -31 -329 -107 -868 -33 -231 -66 -475
-75 -542 -18 -139 -90 -531 -99 -541 -19 -19 -160 92 -581 458 -143 124 -345
299 -450 390 -252 217 -327 284 -616 550 -308 283 -457 415 -745 661 -126 108
-269 232 -318 275 -49 43 -87 73 -85 67z"/>
</g>
</svg>
